<?xml version="1.0" standalone="no"?><!DOCTYPE svg PUBLIC "-//W3C//DTD SVG 1.1//EN" "http://www.w3.org/Graphics/SVG/1.1/DTD/svg11.dtd"><svg t="1705769000186" class="icon" viewBox="0 0 1024 1024" version="1.1" xmlns="http://www.w3.org/2000/svg" p-id="6683" xmlns:xlink="http://www.w3.org/1999/xlink" width="200" height="200"><path d="M396.1344 312.576H307.2v48.5376h32.3584V716.8L716.8 307.2h-102.4l-218.2656 231.7312v-226.304zM563.712 603.392h13.056c4.2496 0 8.2944-0.256 12.1856-0.7168a27.2384 27.2384 0 0 0 9.5232-2.816h0.1024c2.56-1.3312 4.608-3.1744 6.144-5.632a19.2512 19.2512 0 0 0 2.2528-10.2912 17.2544 17.2544 0 0 0-5.5296-13.4144 21.2992 21.2992 0 0 0-15.2064-5.2736 22.528 22.528 0 0 0-13.6192 4.4032 24.2176 24.2176 0 0 0-8.704 12.1344l-1.536 4.4544-42.24-11.264 1.536-5.12c2.2528-7.168 5.376-13.5168 9.5744-18.944 4.096-5.4784 9.0112-9.9328 14.6944-13.312 5.5808-3.584 11.7248-6.144 18.3296-7.7824a83.968 83.968 0 0 1 20.48-2.4576c8.2944 0 16.1792 1.0752 23.7056 3.2768 7.5264 2.2016 14.2336 5.5296 20.0704 10.0352a46.7968 46.7968 0 0 1 13.9776 16.8448 48.4864 48.4864 0 0 1 5.4272 23.3472c0 10.752-3.0208 20.48-9.1136 29.0816a42.0352 42.0352 0 0 1-12.288 11.3152c6.3488 2.9184 11.6736 7.168 15.872 12.9024 6.656 9.1648 9.8816 19.968 9.8816 32.2048 0 9.3696-1.8432 17.8176-5.632 25.2928a54.784 54.784 0 0 1-14.6432 18.5856l-0.1024 0.0512c-6.144 4.864-13.312 8.5504-21.2992 11.1104h-0.1024a90.4192 90.4192 0 0 1-47.0016 0.8192 64.2048 64.2048 0 0 1-19.6608-7.9872v-0.0512a57.856 57.856 0 0 1-15.2064-14.336 65.2288 65.2288 0 0 1-9.7792-21.1456l-1.3824-4.9664 42.8032-11.3664 1.2288 5.0688a27.4944 27.4944 0 0 0 8.3456 14.7456c3.584 3.072 8.8064 4.9152 16.128 4.9152a27.0336 27.0336 0 0 0 9.728-1.7408h0.0512a25.2928 25.2928 0 0 0 8.0896-4.6592 20.992 20.992 0 0 0 5.376-7.2192l0.0512-0.1024a22.016 22.016 0 0 0 2.048-9.5744 18.688 18.688 0 0 0-2.8672-11.1104l-0.1536-0.2048a17.4592 17.4592 0 0 0-7.3728-6.6048l-0.256-0.1024a32.512 32.512 0 0 0-11.0592-3.584 94.3104 94.3104 0 0 0-13.312-0.9216h-12.5952v-37.888z m-33.8944 88.7808z m-3.2256-120.832z" p-id="6684" fill="#3fb984"></path><path d="M283.904 153.6A130.304 130.304 0 0 0 153.6 283.904v456.192A130.304 130.304 0 0 0 283.904 870.4h456.192A130.304 130.304 0 0 0 870.4 740.0448V283.904A130.304 130.304 0 0 0 740.0448 153.6H283.904z m456.192 76.8c29.5424 0 53.504 23.9616 53.504 53.504v456.192c0 29.5424-23.9616 53.504-53.5552 53.504H283.904A53.504 53.504 0 0 1 230.4 740.0448V283.904c0-29.5424 23.9616-53.504 53.504-53.504h456.192z" p-id="6685" fill="#3fb984"></path></svg>